<svg width="65" height="31" viewBox="0 0 65 31" fill="none" xmlns="http://www.w3.org/2000/svg">
<path d="M12.1872 0.650391C14.9637 0.726891 17.4927 1.36589 19.8552 2.86439C22.2897 4.40789 23.4192 7.45889 22.0917 10.2534C20.3142 13.9974 17.7717 17.1339 14.0502 19.1319C12.6237 19.8969 11.0982 20.3334 9.49173 19.5009C9.33423 19.4199 8.86623 19.6044 8.77173 19.7889C8.44773 20.4054 8.14623 21.0579 7.97973 21.7329C7.48473 23.7624 7.06173 25.8099 6.59823 27.8484C6.28773 29.2074 4.67673 29.8284 2.98473 29.2614C0.54573 28.4424 0.34323 27.7944 0.85623 25.1439C1.57623 21.4179 3.20523 18.0204 4.36623 14.4564C5.06373 12.3099 5.58573 10.1049 6.20673 7.93139C6.40923 7.22039 6.72873 6.54089 6.86823 5.82089C6.98523 5.24039 7.06173 4.57889 6.89523 4.02989C6.48573 2.67989 7.00773 1.51439 8.38923 1.23539C9.64023 0.98339 10.9182 0.843891 12.1872 0.650391ZM10.3152 14.9559C10.4232 15.0414 10.5312 15.1269 10.6392 15.2124C11.0667 15.0864 11.5302 15.0234 11.9127 14.8164C14.2662 13.5339 15.8232 11.5089 17.0067 9.16439C17.4432 8.30489 17.7402 7.30589 16.8627 6.61739C16.2282 6.11789 15.3732 5.82089 14.5677 5.62739C13.5732 5.38439 12.8712 5.62289 12.5877 6.88739C12.2727 8.30489 11.4942 9.60989 11.0847 11.0139C10.7157 12.2919 10.5627 13.6374 10.3152 14.9559Z" fill="#00AC7E"/>
<path d="M42.117 10.91C43.0485 8.02996 44.0025 5.32546 44.7855 2.57596C45.2895 0.793959 46.6395 0.29446 48.228 1.50046C49.5555 2.50846 50.0775 4.53796 49.4115 6.18946C48.3405 8.85346 47.157 11.477 46.2165 14.186C45.5595 16.085 45.2265 18.0965 44.7675 20.0585C44.4435 21.4355 44.169 22.826 43.845 24.1985C43.4715 25.7825 43.0845 27.362 42.6705 28.9325C42.3195 30.251 41.811 30.5255 40.4025 30.2465C39.3765 30.044 38.454 29.1125 38.2335 28.0595C38.0355 27.1145 37.833 27.0695 37.0905 27.614C36.276 28.2125 35.43 28.7975 34.521 29.2295C33.297 29.81 30.633 28.8875 30.012 26.8535C29.3865 24.806 29.535 22.799 29.913 20.7155C30.552 17.1695 32.451 14.3795 34.845 11.873C35.9655 10.6985 37.365 9.79846 39.0345 9.64546C39.6735 9.58696 40.371 9.98296 41.019 10.226C41.3295 10.343 41.595 10.5815 42.117 10.91ZM34.1025 23.0915C34.1655 23.1455 34.224 23.204 34.287 23.258C34.413 23.564 34.494 24.104 34.6695 24.1355C35.1285 24.221 35.7765 24.2615 36.0825 24.005C36.8745 23.339 37.671 22.592 38.193 21.7145C39.3675 19.7525 40.3125 17.6645 40.5105 15.329C40.542 14.987 40.5105 14.6405 40.5105 14.2985C40.0515 14.357 39.4305 14.2535 39.1605 14.51C38.265 15.365 37.3065 16.2425 36.726 17.309C35.7135 19.154 34.962 21.152 34.1025 23.0915Z" fill="#00AC7E"/>
<path d="M64.3597 13.8088C64.2472 17.3368 62.4517 19.1413 59.9542 20.2573C58.1992 21.0403 56.2912 21.4723 54.4507 22.0663C53.9827 22.2148 53.4922 22.3228 53.0602 22.5433C52.8577 22.6468 52.6057 23.0473 52.6642 23.1778C52.8397 23.5603 53.0917 24.0013 53.4382 24.1948C54.8917 25.0093 56.1427 24.1903 57.4162 23.5918C58.0462 23.2948 58.6852 22.9618 59.3557 22.8358C60.7507 22.5793 61.6057 23.7088 61.0702 25.0048C60.1972 27.1198 58.4287 28.1953 56.4082 28.9378C54.5047 29.6353 52.6192 29.5678 50.8552 28.5418C49.3882 27.6913 48.6277 26.3458 48.1957 24.6988C47.6647 22.6558 47.9887 20.7118 48.6862 18.8443C50.0947 15.0958 52.0702 11.6983 56.0527 10.1683C58.1722 9.35383 60.4222 9.48883 62.4337 10.6138C63.8062 11.3833 64.5127 12.6838 64.3597 13.8088ZM53.8027 18.2863C53.8972 18.3898 53.9872 18.4978 54.0817 18.6013C55.9402 18.4033 57.7357 17.9983 59.0947 16.5268C59.3152 16.2883 59.5267 15.7303 59.4052 15.5413C59.1622 15.1723 58.7167 14.8123 58.2892 14.7088C57.4612 14.5018 56.6467 14.7268 56.0752 15.4108C55.2877 16.3468 54.5542 17.3233 53.8027 18.2863Z" fill="#00AC7E"/>
<path d="M20.4721 25.3152C20.6926 24.4152 21.0301 22.8177 21.4711 21.2562C21.9571 19.5372 22.4611 17.8137 23.1091 16.1532C23.8156 14.3352 24.6841 12.5802 25.5121 10.8161C26.0386 9.69565 26.9971 9.57865 28.0231 9.93865C28.9726 10.2717 29.5576 11.0457 29.5531 12.0267C29.5486 12.8547 29.3056 13.6962 29.0671 14.5017C28.0996 17.7732 27.1006 21.0402 26.1016 24.3027C25.6876 25.6482 25.2781 26.9982 24.8146 28.3302C24.4546 29.3697 23.7076 29.6622 22.6951 29.2482C20.6386 28.3887 20.4316 28.0962 20.4721 25.3152Z" fill="#00AC7E"/>
<path d="M31.5503 7.99903C31.5053 9.02953 30.3983 9.69553 29.5118 9.18253C29.0573 8.91703 28.5983 8.77303 28.0763 8.75503C27.4958 8.73253 27.0323 8.29603 26.8928 7.69303C26.7668 7.13953 27.0278 6.56353 27.5228 6.25753C27.9863 5.96953 28.4453 5.67253 28.8953 5.36203C29.5928 4.87153 30.4343 5.13703 30.7358 5.93803C30.9203 6.42853 31.1543 6.90103 31.3568 7.38703C31.4378 7.58053 31.4873 7.79203 31.5503 7.99903Z" fill="#00AC7E"/>
<path d="M32.6085 3.81358C32.604 4.47958 32.325 4.93409 31.857 5.27609C31.2495 5.72159 30.516 5.40209 30.48 4.65058C30.444 3.90808 30.6915 3.21958 31.155 2.63458C31.416 2.30608 31.7265 2.30158 32.046 2.58508C32.4285 2.92708 32.6085 3.36808 32.6085 3.81358Z" fill="#00AC7E"/>
<path d="M30.4346 2.69836C30.2861 3.18886 30.1601 3.68836 29.9756 4.16536C29.8991 4.36336 29.7191 4.54786 29.5436 4.66936C29.1206 4.96186 28.6346 4.82686 28.3826 4.37686C27.8426 3.43186 28.3916 2.15835 29.4491 1.89285C30.0746 1.73985 30.3806 2.00085 30.4346 2.69836Z" fill="#00AC7E"/>
<path d="M33.7201 5.75303C33.6166 6.12653 33.5536 6.52253 33.3961 6.87353C33.1396 7.43603 32.5231 7.67453 31.9606 7.49453C31.6681 7.40003 31.5151 7.21103 31.5196 6.89603C31.5286 6.21203 32.4061 5.06903 33.0631 4.89803C33.3241 4.83053 33.5221 4.91603 33.5941 5.18153C33.6436 5.35703 33.6481 5.54603 33.6751 5.73053C33.6886 5.73953 33.7066 5.74403 33.7201 5.75303Z" fill="#00AC7E"/>
<path d="M27.9865 4.66842C27.8875 5.05542 27.838 5.38393 27.7165 5.68543C27.595 5.99143 27.352 6.08143 27.028 6.00943C26.4835 5.89243 26.0785 5.34342 26.1235 4.75842C26.164 4.19142 26.4115 3.70092 26.7805 3.28242C27.073 2.94492 27.415 2.97192 27.595 3.38142C27.7795 3.79992 27.8695 4.25892 27.9865 4.66842Z" fill="#00AC7E"/>
</svg>
